<svg xmlns="http://www.w3.org/2000/svg" viewBox="0 0 130 130" role="img">
  <title>SkillTrain Logo Mark — Black and White</title>
  <desc>SkillTrain standalone logo mark in black and white with transparent background</desc>
  <g transform="translate(65, 65)">
    <circle cx="0" cy="0" r="62" fill="none" stroke="#1C1C1C" stroke-width="1.5"/>
    <circle cx="0" cy="0" r="56" fill="none" stroke="#1C1C1C" stroke-width="3"/>
    <circle cx="0" cy="0" r="47" fill="#1C1C1C"/>
    <circle cx="0" cy="0" r="8" fill="white"/>
    <circle cx="0" cy="-35" r="6.5" fill="white"/>
    <path d="M-9 -22 Q-9 -30 0 -28 Q9 -30 9 -22" fill="white"/>
    <g transform="translate(-21, 19)">
      <g transform="rotate(0)">  <rect x="-2" y="-11" width="4" height="4" rx="1" fill="white"/></g>
      <g transform="rotate(45)"> <rect x="-2" y="-11" width="4" height="4" rx="1" fill="white"/></g>
      <g transform="rotate(90)"> <rect x="-2" y="-11" width="4" height="4" rx="1" fill="white"/></g>
      <g transform="rotate(135)"><rect x="-2" y="-11" width="4" height="4" rx="1" fill="white"/></g>
      <g transform="rotate(180)"><rect x="-2" y="-11" width="4" height="4" rx="1" fill="white"/></g>
      <g transform="rotate(225)"><rect x="-2" y="-11" width="4" height="4" rx="1" fill="white"/></g>
      <g transform="rotate(270)"><rect x="-2" y="-11" width="4" height="4" rx="1" fill="white"/></g>
      <g transform="rotate(315)"><rect x="-2" y="-11" width="4" height="4" rx="1" fill="white"/></g>
      <circle cx="0" cy="0" r="7.5" fill="white"/>
      <circle cx="0" cy="0" r="3.2" fill="#1C1C1C"/>
    </g>
    <g transform="translate(11, 8)">
      <rect x="0"  y="11" width="5" height="9"  rx="1.2" fill="white" opacity="0.45"/>
      <rect x="7"  y="6"  width="5" height="14" rx="1.2" fill="white" opacity="0.72"/>
      <rect x="14" y="0"  width="5" height="20" rx="1.2" fill="white"/>
    </g>
  </g>
</svg>
